<?xml version="1.0" encoding="UTF-8" standalone="no"?>
<!-- Created with Inkscape (http://www.inkscape.org/) -->

<svg
   width="20"
   height="20"
   viewBox="0 0 5.2916664 5.2916668"
   version="1.1"
   id="svg5"
   inkscape:version="1.1.1 (3bf5ae0d25, 2021-09-20)"
   sodipodi:docname="explosion_0.svg"
   xmlns:inkscape="http://www.inkscape.org/namespaces/inkscape"
   xmlns:sodipodi="http://sodipodi.sourceforge.net/DTD/sodipodi-0.dtd"
   xmlns="http://www.w3.org/2000/svg"
   xmlns:svg="http://www.w3.org/2000/svg">
  <sodipodi:namedview
     id="namedview7"
     pagecolor="#ffffff"
     bordercolor="#666666"
     borderopacity="1.0"
     inkscape:pageshadow="2"
     inkscape:pageopacity="0.0"
     inkscape:pagecheckerboard="0"
     inkscape:document-units="mm"
     showgrid="false"
     units="px"
     inkscape:zoom="11.859035"
     inkscape:cx="34.699283"
     inkscape:cy="28.627962"
     inkscape:window-width="1920"
     inkscape:window-height="1017"
     inkscape:window-x="-8"
     inkscape:window-y="515"
     inkscape:window-maximized="1"
     inkscape:current-layer="layer1" />
  <defs
     id="defs2" />
  <g
     inkscape:label="Ebene 1"
     inkscape:groupmode="layer"
     id="layer1">
    <path
       sodipodi:type="star"
       style="fill:#800000;stroke-width:1.00157"
       id="path920"
       inkscape:flatsided="false"
       sodipodi:sides="11"
       sodipodi:cx="4.0475469"
       sodipodi:cy="2.6983645"
       sodipodi:r1="5.6647835"
       sodipodi:r2="2.8323917"
       sodipodi:arg1="0.79592409"
       sodipodi:arg2="1.0815234"
       inkscape:rounded="0"
       inkscape:randomized="0"
       d="M 8.0107698,6.7459114 5.3787264,5.1984453 5.1933531,8.2460577 3.8157606,5.5212563 2.0121511,7.9848506 2.3263853,4.9478191 -0.52282724,6.0452216 1.3834667,3.6601959 -1.6067441,3.0429891 1.2863747,2.0671981 -0.89546345,-0.06865933 2.0659353,0.67459111 1.385188,-2.3017972 3.4746437,-0.07548209 4.5111196,-2.9474191 5.0652447,0.0551214 7.4898701,-1.8005446 6.3327339,1.0249359 9.3757073,0.77470181 6.8746923,2.5260522 9.5698912,3.9606975 6.5190521,4.0818764 Z"
       transform="matrix(0.46220626,0,0,0.46788846,0.8306755,1.4470319)"
       inkscape:transform-center-x="0.35212417"
       inkscape:transform-center-y="-0.32950538"
       inkscape:export-filename="G:\Meine Ablage\Dokumente\Projekte\fireworks.js\rocket-images\explosion1.png"
       inkscape:export-xdpi="96"
       inkscape:export-ydpi="96" />
    <path
       sodipodi:type="star"
       style="fill:#ff9955;stroke-width:1.00157"
       id="path1024"
       inkscape:flatsided="false"
       sodipodi:sides="11"
       sodipodi:cx="17.960991"
       sodipodi:cy="15.178301"
       sodipodi:r1="11.212542"
       sodipodi:r2="5.6062708"
       sodipodi:arg1="0.51075079"
       sodipodi:arg2="0.79635012"
       inkscape:rounded="0"
       inkscape:randomized="0"
       d="m 27.742563,20.659354 -5.860993,-1.473644 1.344922,5.891863 -4.133869,-4.4084 -2.053962,5.68367 -1.094271,-5.94352 -4.800726,3.670952 2.29275,-5.591615 -6.0232939,0.492733 4.9518399,-3.464411 -5.3335095,-2.841926 6.0387545,-0.237282 -2.950372,-5.2742923 5.208408,3.0651833 0.369486,-6.0321093 2.724429,5.394474 3.572036,-4.8747735 -0.624538,6.0110578 5.64049,-2.169732 -3.775218,4.719173 5.918128,1.224184 -5.727293,1.928984 z"
       transform="matrix(0.11682556,0,0,0.11324251,0.6037928,1.0461021)"
       inkscape:transform-center-x="-0.015334654"
       inkscape:transform-center-y="0.010916546"
       inkscape:export-filename="G:\Meine Ablage\Dokumente\Projekte\fireworks.js\rocket-images\explosion1.png"
       inkscape:export-xdpi="96"
       inkscape:export-ydpi="96" />
    <path
       sodipodi:type="star"
       style="fill:#ffffff;stroke-width:1.00157"
       id="path1168"
       inkscape:flatsided="false"
       sodipodi:sides="11"
       sodipodi:cx="23.526367"
       sodipodi:cy="21.924213"
       sodipodi:r1="4.6309099"
       sodipodi:r2="2.315455"
       sodipodi:arg1="0.99289439"
       sodipodi:arg2="1.2784937"
       inkscape:rounded="0"
       inkscape:randomized="0"
       d="m 26.056084,25.803113 -1.8625,-1.66166 -0.636175,2.413566 -0.668474,-2.40482 -1.840056,1.686479 0.737788,-2.384468 -2.459734,0.423947 1.909808,-1.607064 -2.298463,-0.973186 2.475477,-0.319428 -1.407446,-2.061339 2.2552,1.069624 -0.06958,-2.495031 1.318912,2.119077 1.290385,-2.136568 -0.03612,2.495739 2.240658,-1.099761 -1.379685,2.080022 2.479536,0.286213 -2.285208,1.003912 1.93118,1.581316 -2.465196,-0.390933 z"
       transform="matrix(0.10409197,0,0,0.10531574,0.39265671,0.31327278)"
       inkscape:transform-center-x="0.00045980991"
       inkscape:transform-center-y="0.0094171122"
       inkscape:export-filename="G:\Meine Ablage\Dokumente\Projekte\fireworks.js\rocket-images\explosion1.png"
       inkscape:export-xdpi="96"
       inkscape:export-ydpi="96" />
  </g>
</svg>
